<svg xmlns="http://www.w3.org/2000/svg" viewBox="0 0 459.64 311.92"><defs><style>.cls-1{fill:#946c3a;fill-rule:evenodd;}.cls-2{opacity:0.59;}.cls-3{fill:#1d1d1b;}.cls-19,.cls-21,.cls-3{opacity:0.4;}.cls-4{fill:#cfd8dc;}.cls-5{fill:#f47b4e;}.cls-6{fill:#eceff1;}.cls-7{fill:#a1887f;}.cls-8{isolation:isolate;}.cls-9{fill:#8d6e63;}.cls-10{fill:#cfae74;}.cls-11{fill:#ffc783;}.cls-12{fill:#e5a457;}.cls-13{fill:#426b80;}.cls-14{fill:#64b5f6;}.cls-15{fill:#e9e5d9;}.cls-16{fill:#f9f8f7;}.cls-17{fill:#4d7f91;}.cls-18{fill:#fa6564;}.cls-20{fill:#55a7dd;}.cls-21{fill:#fdf7fb;}.cls-22{fill:#765635;opacity:0.75;}</style></defs><title>Asset 6</title><g id="Layer_2" data-name="Layer 2"><g id="Livello_1" data-name="Livello 1"><path class="cls-1" d="M459.64,223.94c0,35.3-67.83,88-144.31,88s-132.66-46.27-132.66-88c0-60.78,62-98,138.48-98S459.64,161.42,459.64,223.94Z"/><g class="cls-2"><path class="cls-3" d="M390.71,181.6c-56.91-2.8-101.29,1.64-115.89,5-2.54.59-40.92,29-33.67,36.1,11.42,11.12,31.57,46.75,65,45.84,35.71-1,67.71-41.39,76.84-45.87C411.85,208.58,395,181.81,390.71,181.6Z"/></g><polygon class="cls-4" points="306.74 247.2 252.82 215.87 252.68 166.09 306.6 197.42 306.74 247.2"/><polygon class="cls-5" points="306.6 197.42 252.68 166.09 336.82 117.51 390.74 148.84 306.6 197.42"/><polygon class="cls-6" points="390.74 148.84 390.88 198.62 306.74 247.2 306.6 197.42 390.74 148.84"/><polygon class="cls-5" points="305.16 201.23 246.1 166.91 338.26 113.7 397.32 148.02 305.16 201.23"/><polygon class="cls-7" points="305.16 199.21 246.1 164.89 338.26 111.69 397.32 146.01 305.16 199.21"/><g class="cls-8"><polygon class="cls-9" points="367.06 213.43 366.16 212.9 366.06 179.29 366.96 179.81 367.06 213.43"/><polyline class="cls-10" points="366.96 179.81 331 200.57 331.09 234.19 329.74 234.97 329.64 199.8 368.31 177.47 368.42 212.64 367.06 213.43"/></g><g class="cls-8"><polygon class="cls-11" points="375.47 201.28 374.57 200.75 383.16 195.8 384.06 196.32 375.47 201.28"/><polygon class="cls-12" points="384.06 196.32 383.16 195.8 383.1 174.62 384 175.14 384.06 196.32"/><path class="cls-10" d="M374,179.32l11.3-6.52.07,24.29-11.3,6.52Z"/></g><g class="cls-8"><polygon class="cls-11" points="315.57 235.86 314.68 235.34 323.26 230.38 324.16 230.9 315.57 235.86"/><polygon class="cls-12" points="324.16 230.9 323.26 230.38 323.2 209.2 324.1 209.72 324.16 230.9"/><path class="cls-10" d="M314.15,213.91l11.3-6.52.07,24.29-11.3,6.52Z"/></g><polygon class="cls-13" points="365.95 163.18 363.7 161.87 363.69 156.91 365.93 158.22 365.95 163.18"/><polygon class="cls-13" points="369.23 156.31 369.24 161.27 365.95 163.18 365.93 158.22 369.23 156.31"/><polygon class="cls-13" points="365.93 158.22 363.69 156.91 366.98 155.01 369.23 156.31 365.93 158.22"/><polygon class="cls-13" points="333.85 176.74 333.86 181.7 330.57 183.6 330.55 178.64 333.85 176.74"/><polygon class="cls-13" points="330.57 183.6 328.32 182.3 328.31 177.34 330.55 178.64 330.57 183.6"/><polygon class="cls-13" points="330.55 178.64 328.31 177.34 331.6 175.43 333.85 176.74 330.55 178.64"/><polygon class="cls-13" points="323.28 182.84 321.03 181.53 320.98 163.91 323.23 165.21 323.28 182.84"/><polygon class="cls-13" points="376.45 134.49 376.5 152.11 369.23 156.31 365.93 158.22 333.85 176.74 330.55 178.64 323.28 182.84 323.23 165.21 376.45 134.49"/><polygon class="cls-13" points="323.23 165.21 320.98 163.91 374.2 133.18 376.45 134.49 323.23 165.21"/><polygon class="cls-9" points="366.16 212.9 366.16 180.27 331 200.57 331.13 233.12 366.16 212.9"/><polygon class="cls-14" points="323.26 230.38 323.26 210.21 315.51 214.68 315.57 234.82 323.26 230.38"/><polygon class="cls-14" points="375.41 180.1 375.47 200.24 383.16 195.8 383.1 175.66 375.41 180.1"/><polyline class="cls-4" points="375.1 136.83 324.59 165.99 324.63 180.5 375.14 151.34 375.1 136.83"/><g class="cls-8"><path class="cls-12" d="M391,157.09l-.61-.35a1.94,1.94,0,0,1-.81-1.78l.61.35A1.94,1.94,0,0,0,391,157.09Z"/><path class="cls-10" d="M395.78,148.92v3.18a6.09,6.09,0,0,1-2.77,4.79c-1.53.88-2.78.18-2.78-1.59v-3.18Z"/><polygon class="cls-15" points="390.24 155.31 389.63 154.95 389.62 151.77 390.23 152.12 390.24 155.31"/><polygon class="cls-16" points="390.23 152.12 389.62 151.77 395.17 148.56 395.78 148.92 390.23 152.12"/></g><g class="cls-8"><path class="cls-17" d="M385.5,160.29l-.61-.35a1.94,1.94,0,0,1-.81-1.78l.61.35A1.94,1.94,0,0,0,385.5,160.29Z"/><path class="cls-14" d="M390.23,152.12v3.18a6.08,6.08,0,0,1-2.76,4.79c-1.53.88-2.78.18-2.78-1.59v-3.18Z"/><polygon class="cls-17" points="384.69 158.51 384.08 158.15 384.07 154.97 384.68 155.32 384.69 158.51"/><polygon class="cls-18" points="384.68 155.32 384.07 154.97 389.62 151.77 390.23 152.12 384.68 155.32"/></g><g class="cls-8"><path class="cls-12" d="M379.95,163.49l-.61-.35a1.94,1.94,0,0,1-.81-1.78l.61.35A1.94,1.94,0,0,0,379.95,163.49Z"/><path class="cls-10" d="M384.68,155.32v3.18a6.09,6.09,0,0,1-2.77,4.79c-1.53.88-2.78.18-2.78-1.59v-3.18Z"/><polygon class="cls-15" points="379.14 161.71 378.53 161.36 378.52 158.18 379.13 158.53 379.14 161.71"/><polygon class="cls-16" points="379.13 158.53 378.52 158.18 384.07 154.97 384.68 155.32 379.13 158.53"/></g><g class="cls-8"><path class="cls-17" d="M374.4,166.7l-.61-.35a1.94,1.94,0,0,1-.81-1.78l.61.35A1.94,1.94,0,0,0,374.4,166.7Z"/><path class="cls-14" d="M379.13,158.53v3.18a6.08,6.08,0,0,1-2.76,4.79c-1.53.88-2.78.18-2.78-1.59v-3.18Z"/><polygon class="cls-17" points="373.59 164.91 372.98 164.56 372.97 161.38 373.58 161.73 373.59 164.91"/><polygon class="cls-18" points="373.58 161.73 372.97 161.38 378.52 158.18 379.13 158.53 373.58 161.73"/></g><g class="cls-8"><path class="cls-12" d="M368.85,169.9l-.61-.35a1.94,1.94,0,0,1-.81-1.78l.61.35A1.94,1.94,0,0,0,368.85,169.9Z"/><path class="cls-10" d="M373.58,161.73v3.18a6.09,6.09,0,0,1-2.77,4.79c-1.53.88-2.78.18-2.78-1.59v-3.18Z"/><polygon class="cls-15" points="368.04 168.12 367.43 167.76 367.42 164.58 368.03 164.94 368.04 168.12"/><polygon class="cls-16" points="368.03 164.94 367.42 164.58 372.97 161.38 373.58 161.73 368.03 164.94"/></g><g class="cls-8"><path class="cls-17" d="M363.3,173.1l-.61-.35a1.94,1.94,0,0,1-.81-1.78l.61.35A1.94,1.94,0,0,0,363.3,173.1Z"/><path class="cls-14" d="M368,164.94v3.18a6.08,6.08,0,0,1-2.76,4.79c-1.53.88-2.78.18-2.78-1.59v-3.18Z"/><polygon class="cls-17" points="362.5 171.32 361.89 170.97 361.88 167.78 362.49 168.14 362.5 171.32"/><polygon class="cls-18" points="362.49 168.14 361.88 167.78 367.42 164.58 368.03 164.94 362.49 168.14"/></g><g class="cls-8"><path class="cls-12" d="M357.75,176.31l-.61-.35a1.94,1.94,0,0,1-.81-1.78l.61.35A1.94,1.94,0,0,0,357.75,176.31Z"/><path class="cls-10" d="M362.49,168.14v3.18a6.09,6.09,0,0,1-2.77,4.79c-1.53.88-2.78.18-2.78-1.59v-3.18Z"/><polygon class="cls-15" points="356.94 174.53 356.33 174.17 356.32 170.99 356.94 171.34 356.94 174.53"/><polygon class="cls-16" points="356.94 171.34 356.32 170.99 361.88 167.78 362.49 168.14 356.94 171.34"/></g><g class="cls-8"><path class="cls-17" d="M352.21,179.51l-.61-.35a1.94,1.94,0,0,1-.81-1.78l.61.35A1.94,1.94,0,0,0,352.21,179.51Z"/><path class="cls-14" d="M356.94,171.34v3.18a6.08,6.08,0,0,1-2.76,4.79c-1.53.88-2.78.18-2.78-1.59v-3.18Z"/><polygon class="cls-17" points="351.4 177.73 350.79 177.37 350.78 174.19 351.39 174.54 351.4 177.73"/><polygon class="cls-18" points="351.39 174.54 350.78 174.19 356.32 170.99 356.94 171.34 351.39 174.54"/></g><g class="cls-8"><path class="cls-12" d="M346.66,182.71l-.61-.35a1.94,1.94,0,0,1-.81-1.78l.61.35A1.94,1.94,0,0,0,346.66,182.71Z"/><path class="cls-10" d="M351.39,174.55v3.18a6.09,6.09,0,0,1-2.77,4.79c-1.53.88-2.78.18-2.78-1.59v-3.18Z"/><polygon class="cls-15" points="345.85 180.93 345.24 180.58 345.23 177.4 345.84 177.75 345.85 180.93"/><polygon class="cls-16" points="345.84 177.75 345.23 177.4 350.78 174.19 351.39 174.54 345.84 177.75"/></g><g class="cls-8"><path class="cls-17" d="M341.11,185.92l-.61-.35a1.94,1.94,0,0,1-.81-1.78l.61.35A1.94,1.94,0,0,0,341.11,185.92Z"/><path class="cls-14" d="M345.84,177.75v3.18a6.08,6.08,0,0,1-2.76,4.79c-1.53.88-2.78.18-2.78-1.59V181Z"/><polygon class="cls-17" points="340.3 184.13 339.69 183.78 339.68 180.6 340.29 180.95 340.3 184.13"/><polygon class="cls-18" points="340.29 180.95 339.68 180.6 345.23 177.4 345.84 177.75 340.29 180.95"/></g><g class="cls-8"><path class="cls-12" d="M335.56,189.12l-.61-.35a1.94,1.94,0,0,1-.81-1.78l.61.35A1.94,1.94,0,0,0,335.56,189.12Z"/><path class="cls-10" d="M340.29,181v3.18a6.09,6.09,0,0,1-2.77,4.79c-1.53.88-2.78.18-2.78-1.59v-3.18Z"/><polygon class="cls-15" points="334.75 187.34 334.14 186.99 334.13 183.8 334.74 184.16 334.75 187.34"/><polygon class="cls-16" points="334.74 184.16 334.13 183.8 339.68 180.6 340.29 180.95 334.74 184.16"/></g><g class="cls-8"><path class="cls-17" d="M330,192.32l-.61-.35a1.94,1.94,0,0,1-.81-1.78l.61.35A1.94,1.94,0,0,0,330,192.32Z"/><path class="cls-14" d="M334.74,184.16v3.18a6.08,6.08,0,0,1-2.76,4.79c-1.53.88-2.78.18-2.78-1.59v-3.18Z"/><polygon class="cls-17" points="329.2 190.54 328.59 190.19 328.58 187 329.2 187.36 329.2 190.54"/><polygon class="cls-18" points="329.2 187.36 328.58 187 334.13 183.8 334.74 184.16 329.2 187.36"/></g><g class="cls-8"><path class="cls-12" d="M324.46,195.53l-.61-.35a1.94,1.94,0,0,1-.81-1.78l.61.35A1.94,1.94,0,0,0,324.46,195.53Z"/><path class="cls-10" d="M329.2,187.36v3.18a6.09,6.09,0,0,1-2.77,4.79c-1.53.88-2.78.18-2.78-1.59v-3.18Z"/><polygon class="cls-15" points="323.65 193.75 323.04 193.39 323.03 190.21 323.64 190.56 323.65 193.75"/><polygon class="cls-16" points="323.64 190.56 323.03 190.21 328.58 187 329.2 187.36 323.64 190.56"/></g><g class="cls-8"><path class="cls-17" d="M318.92,198.73l-.61-.35a1.94,1.94,0,0,1-.81-1.78l.61.35A1.94,1.94,0,0,0,318.92,198.73Z"/><path class="cls-14" d="M323.64,190.56v3.18a6.08,6.08,0,0,1-2.76,4.79c-1.53.88-2.78.18-2.78-1.59v-3.18Z"/><polygon class="cls-17" points="318.11 196.95 317.5 196.59 317.49 193.41 318.1 193.77 318.11 196.95"/><polygon class="cls-18" points="318.1 193.77 317.49 193.41 323.03 190.21 323.64 190.56 318.1 193.77"/></g><g class="cls-8"><path class="cls-12" d="M313.37,201.94l-.61-.35a1.94,1.94,0,0,1-.81-1.78l.61.35A1.94,1.94,0,0,0,313.37,201.94Z"/><path class="cls-10" d="M318.1,193.77v3.18a6.09,6.09,0,0,1-2.77,4.79c-1.53.88-2.78.18-2.78-1.59V197Z"/><polygon class="cls-15" points="312.56 200.15 311.95 199.8 311.94 196.62 312.55 196.97 312.56 200.15"/><polygon class="cls-16" points="312.55 196.97 311.94 196.62 317.49 193.41 318.1 193.77 312.55 196.97"/></g><g class="cls-8"><path class="cls-14" d="M312.55,197v3.18a6.08,6.08,0,0,1-2.76,4.79c-1.53.88-2.78.18-2.78-1.59v-3.18Z"/><polygon class="cls-18" points="307 200.17 306.39 199.82 311.94 196.62 312.55 196.97 307 200.17"/></g><polygon class="cls-7" points="397.32 146.01 397.32 148.02 305.16 201.23 305.16 199.21 397.32 146.01"/><polygon class="cls-7" points="246.1 164.89 246.1 166.91 305.16 201.23 305.16 199.21 246.1 164.89"/><polygon class="cls-10" points="349.81 222.36 349.81 189.73 350.9 189.1 350.9 221.72 349.81 222.36"/><circle class="cls-15" cx="352.67" cy="207.23" r="0.88"/><circle class="cls-15" cx="348.37" cy="209.53" r="0.88"/><g class="cls-8"><path class="cls-13" d="M341.67,158.89c.28-.16.39-.08.39.22v1.48a.7.7,0,0,1-.39.67l-2.51,1.45a.61.61,0,0,0-.29.54c0,.22.11.31.29.22l1.61-.68c1-.41,1.69-.3,1.69,1.09v1.3a4.06,4.06,0,0,1-2.23,3.48l-3.41,2c-.27.15-.39.08-.39-.22V169a.7.7,0,0,1,.39-.67l2.91-1.68a.61.61,0,0,0,.27-.52c0-.29-.1-.34-.28-.26l-1.62.68c-1,.41-1.68.3-1.68-1.09v-1.3a4,4,0,0,1,2.23-3.48Z"/></g><g class="cls-8"><path class="cls-13" d="M350,154.1c.27-.15.39-.08.39.22l0,8.05a.71.71,0,0,1-.39.67l-1.68,1c-.27.15-.39.08-.39-.22V161l-1.8,1v2.76a.71.71,0,0,1-.4.68l-1.67,1c-.27.15-.39.08-.39-.22l0-8.05a.71.71,0,0,1,.39-.67l1.67-1c.28-.16.4-.09.4.22v2.69l1.8-1v-2.69a.71.71,0,0,1,.39-.67Z"/></g><g class="cls-8"><path class="cls-13" d="M355.08,151c2.7-1.56,3.35-.9,3.36.61v4.24c0,1.51-.64,2.91-3.34,4.47s-3.37.92-3.37-.59v-4.24C351.72,153.93,352.38,152.52,355.08,151Zm.93,5.81v-3.35c0-.32-.12-.5-.91,0s-.91.78-.91,1.09v3.35c0,.34.13.5.91.05s.91-.77.91-1.1"/></g><g class="cls-8"><path class="cls-13" d="M363.5,146.28c2-1.14,2.56-.5,2.56.95v1.59c0,1.44-.58,2.75-2.55,3.89l-1.24.72v2.07a.71.71,0,0,1-.39.67l-1.67,1c-.28.16-.39.09-.39-.22l0-8.05a.7.7,0,0,1,.39-.67Zm.23,3.46v-.65c0-.33-.09-.56-.51-.32l-1,.56v1.87l1-.56a.94.94,0,0,0,.51-.9"/></g><g class="cls-19"><path class="cls-20" d="M437.59,222.61c6.15-76.36-29.9-152.17-109.53-156.09C238.75,62.12,193.21,155,202,221.33c.51,2.15-10.6,50.38,99,61.61C406.16,293.72,437.28,226.48,437.59,222.61Z"/></g><path class="cls-21" d="M235.36,127.05c-.92-23.55,56.47-55.61,75-53.72,6.74.69-16.07,9-39.65,23.6C255.69,106.18,235.51,130.84,235.36,127.05ZM215,233.79c11.65,24.68,49.1,35.28,82.15,34.49S252.44,250.88,239,236.53c-23.14-24.74-19.89-76.27-26.83-62.14C207.72,183.45,209,221.17,215,233.79Z"/><polygon class="cls-22" points="169.56 80.81 240.25 142.53 140.38 82.73 8.8 91.15 0 9.23 214.83 0 206.68 82.73 169.56 80.81"/></g></g></svg>