<svg xmlns="http://www.w3.org/2000/svg" viewBox="0 0 1919.35 1705.12"><defs><style>.cls-1{fill:#005f6f;}.cls-2{fill:#fff;opacity:0.1;}.cls-2,.cls-3,.cls-6,.cls-7,.cls-8,.cls-9{fill-rule:evenodd;}.cls-3{fill:#014f5d;}.cls-4{opacity:0.59;}.cls-5{fill:#1d1d1b;opacity:0.4;}.cls-6{fill:#8fb8cc;}.cls-14,.cls-7{fill:#a8d1e5;}.cls-12,.cls-8{fill:#759eb2;}.cls-13,.cls-9{fill:#426b80;}.cls-10{fill:#f7aa21;}.cls-11{fill:#fccd73;}.cls-15{fill:#f4c02f;}.cls-16{fill:#e27f34;}.cls-17{fill:#cc5f23;}.cls-18{fill:#084355;}.cls-19{fill:#1b5f77;}.cls-20{font-size:27px;fill:#e6e6e6;font-family:Industry-Bold, Industry;font-weight:700;}.cls-21{letter-spacing:-0.01em;}.cls-22{letter-spacing:-0.08em;}.cls-23{letter-spacing:-0.01em;}.cls-24{letter-spacing:-0.01em;}.cls-25{letter-spacing:-0.02em;}.cls-26{letter-spacing:-0.02em;}.cls-27{letter-spacing:-0.01em;}.cls-28{letter-spacing:-0.01em;}.cls-29{letter-spacing:-0.02em;}.cls-30{letter-spacing:0em;}.cls-31{letter-spacing:0em;}.cls-32{letter-spacing:-0.01em;}.cls-33{letter-spacing:-0.02em;}.cls-34{letter-spacing:-0.07em;}.cls-35{letter-spacing:-0.02em;}</style></defs><title>Asset 23</title><g id="Layer_2" data-name="Layer 2"><g id="Livello_1" data-name="Livello 1"><path class="cls-1" d="M0,1705.12V69.68c77.62,1.17,145.59,69.07,243.45,98.38,100.26,30,223.84,26.7,333.28,8.79S786.6,127.78,891.6,103.13s219.73-43.06,332.53-33.3c178.64,15.46,337.86,99.61,514.93,79.43,62.11-7.08,121.2-26.83,180.28-40.19V1705.12Z"/><path class="cls-2" d="M887.72,536c-34.93,10.47-52.88,58.12-14.6,77.36,14.6,7.34,34.38,8.93,50.42,8.17,18.19-.86,33.7-6.29,50.57-12.32,17.89-6.39,36.47-6.28,54.32-11.65,35-10.53,35-62.12-4.42-67.11-15.2-1.92-27.08,8.31-41.15,11.58-13.34,3.09-22.64-.27-35-4.74C928.84,530.34,907.22,530.12,887.72,536Z"/><path class="cls-3" d="M883.41,542.46c19.5-5.85,41.12-5.63,60.16,1.28,12.33,4.47,21.64,7.84,35,4.74,14.08-3.27,26-13.5,41.15-11.58,27.79,3.52,36,30.18,26.16,49.3,15.83-18.9,9.28-51.86-21.84-55.8-15.2-1.92-27.08,8.31-41.15,11.58-13.34,3.09-22.64-.27-35-4.74-19-6.91-40.66-7.12-60.16-1.28a52.44,52.44,0,0,0-30.31,24.45A52.24,52.24,0,0,1,883.41,542.46Z"/><path class="cls-2" d="M1415.56,483.89c-36.16,4.7-61.55,48.85-26.87,74,13.23,9.59,32.5,14.35,48.44,16.18,18.09,2.08,34.27-.78,51.89-4,18.69-3.42,37-.33,55.49-2.75,36.25-4.76,44.57-55.67,6.45-66.95-14.69-4.35-28.06,3.84-42.48,4.8-13.66.91-22.3-3.91-33.76-10.32C1457,485,1435.74,481.26,1415.56,483.89Z"/><path class="cls-3" d="M1410.25,489.6c20.19-2.63,41.49,1.07,59.17,10.95,11.45,6.4,20.09,11.22,33.76,10.32,14.42-1,27.79-9.14,42.48-4.8,26.87,8,30.66,35.59,17.87,52.87,18.67-16.1,17.51-49.68-12.57-58.59-14.69-4.35-28.06,3.84-42.48,4.8-13.66.91-22.3-3.91-33.76-10.32-17.68-9.88-39-13.58-59.17-10.95a52.44,52.44,0,0,0-33.85,19.25A52.24,52.24,0,0,1,1410.25,489.6Z"/><path class="cls-2" d="M1196.12,432c10.88-7.34,19.08-12.86,32.77-13.11,14.45-.26,28.46,6.78,42.73,1.22,37-14.43,24.49-64.47-12-66.17-18.62-.87-36.62,3.75-55.53,1.91-17.83-1.74-34.19-3.24-52,.35-15.74,3.16-34.54,9.52-46.92,20.18-32.45,28-3.46,69.83,33,71.48C1158.41,448.78,1179.33,443.31,1196.12,432Z"/><path class="cls-3" d="M1144.46,364.21c17.85-3.59,34.22-2.09,52-.35,18.91,1.85,36.9-2.77,55.53-1.91,28.69,1.34,42.58,32.5,29.27,52.8,24.59-18.66,11.14-59.29-21.71-60.83-18.62-.87-36.62,3.75-55.53,1.91-17.83-1.74-34.19-3.24-52,.35-15.74,3.16-34.54,9.52-46.92,20.18a46.49,46.49,0,0,0-7.24,7.77C1110.24,373.63,1128.85,367.35,1144.46,364.21Z"/><path class="cls-2" d="M426,565c-34.93,10.47-52.88,58.12-14.6,77.36,14.6,7.34,34.38,8.93,50.42,8.17,18.19-.86,33.7-6.29,50.57-12.32,17.89-6.39,36.47-6.28,54.32-11.65,35-10.53,35-62.12-4.42-67.11-15.2-1.92-27.08,8.31-41.15,11.58-13.34,3.09-22.64-.27-35-4.74C467.13,559.34,445.5,559.13,426,565Z"/><path class="cls-3" d="M421.69,571.47c19.5-5.85,41.12-5.63,60.16,1.28,12.33,4.47,21.64,7.84,35,4.74,14.08-3.27,26-13.5,41.15-11.58,27.79,3.52,36,30.18,26.16,49.3,15.83-18.9,9.28-51.86-21.84-55.8-15.2-1.92-27.08,8.31-41.15,11.58-13.34,3.09-22.64-.27-35-4.74-19-6.91-40.66-7.12-60.16-1.28a52.44,52.44,0,0,0-30.31,24.45A52.24,52.24,0,0,1,421.69,571.47Z"/><path class="cls-2" d="M30.85,726.6c-32.58,16.38-42,66.43-.94,78.72C45.57,810,65.33,808.13,81,804.6c17.76-4,32.09-12.05,47.66-20.92,16.51-9.4,34.82-12.52,51.47-20.92,32.65-16.46,23.69-67.26-16-65.32-15.3.75-25.22,12.89-38.52,18.55-12.6,5.37-22.34,3.67-35.27,1.41C70.37,713.91,49,717.45,30.85,726.6Z"/><path class="cls-3" d="M27.73,733.75c18.19-9.15,39.52-12.69,59.47-9.2,12.92,2.26,22.67,4,35.27-1.41,13.3-5.66,23.22-17.81,38.52-18.55,28-1.36,40.69,23.47,34.33,44,12.31-21.36.13-52.68-31.21-51.15-15.3.75-25.22,12.89-38.52,18.55-12.6,5.36-22.34,3.67-35.27,1.41-19.95-3.49-41.28.05-59.47,9.2a52.44,52.44,0,0,0-25.6,29.35A52.24,52.24,0,0,1,27.73,733.75Z"/><path class="cls-2" d="M706.64,593.42c-36-5.65-72.8,29.58-46.58,63.46,10,12.93,27.15,22.9,41.94,29.15,16.78,7.08,33.11,8.88,50.93,10.74,18.9,2,35.6,10.09,54,13,36.12,5.62,58.42-40.9,25-62.44-12.87-8.3-28-4.2-42.12-7.34-13.37-3-20.3-10-29.5-19.39C746.16,606.11,726.75,596.57,706.64,593.42Z"/><path class="cls-3" d="M699.94,597.42c20.11,3.15,39.52,12.69,53.71,27.14,9.19,9.36,16.13,16.42,29.5,19.39,14.11,3.14,29.24-1,42.12,7.34,23.55,15.18,19.42,42.77,2.29,55.77,22.44-10.2,30.77-42.76,4.4-59.76-12.87-8.3-28-4.2-42.12-7.34-13.37-3-20.3-10-29.5-19.39-14.19-14.45-33.59-24-53.71-27.14a52.44,52.44,0,0,0-37.9,9A52.24,52.24,0,0,1,699.94,597.42Z"/><path class="cls-2" d="M560.88,607.65c-.91-36.46-42.17-66.31-70.79-34.44-10.92,12.16-17.66,30.82-21.14,46.49-4,17.77-2.79,34.17-1.42,52,1.46,18.94-3.53,36.84-3,55.47,1,36.55,50.72,50.13,65.91,13.39,5.85-14.15-.9-28.31-.34-42.75.52-13.68,6.22-21.77,13.78-32.5C555.49,648.8,561.39,628,560.88,607.65Z"/><path class="cls-3" d="M555.75,601.78c.51,20.35-5.38,41.16-17.06,57.71-7.56,10.72-13.25,18.81-13.78,32.5-.55,14.44,6.2,28.6.34,42.75-10.71,25.89-38.59,26.79-54.45,12.27,14.07,20.24,47.59,22.6,59.58-6.4,5.85-14.15-.9-28.31-.34-42.75.52-13.68,6.22-21.77,13.78-32.5,11.67-16.55,17.57-37.35,17.06-57.71A52.44,52.44,0,0,0,545.26,572,52.24,52.24,0,0,1,555.75,601.78Z"/><path class="cls-2" d="M266.26,619.24c10.88-7.34,19.08-12.86,32.77-13.11,14.45-.26,28.46,6.78,42.73,1.22,37-14.43,24.49-64.47-12-66.17-18.62-.87-36.62,3.75-55.53,1.91-17.83-1.74-34.19-3.24-52,.35-15.74,3.16-34.54,9.52-46.92,20.18-32.45,28-3.46,69.83,33,71.48C228.55,636,249.47,630.57,266.26,619.24Z"/><path class="cls-3" d="M214.6,551.47c17.85-3.59,34.22-2.09,52-.35,18.91,1.85,36.9-2.77,55.53-1.91,28.69,1.34,42.58,32.5,29.27,52.8,24.59-18.66,11.14-59.29-21.71-60.83-18.62-.87-36.62,3.75-55.53,1.91-17.83-1.74-34.19-3.24-52,.35-15.74,3.16-34.54,9.52-46.92,20.18A46.49,46.49,0,0,0,168,571.4C180.38,560.89,199,554.61,214.6,551.47Z"/><path class="cls-2" d="M697.82,616c13.11-.57,23-1,34.79,6,12.45,7.34,20.71,20.67,35.78,23.4,39.12,7.08,54.6-42.13,24.36-62.69-15.42-10.48-33.17-16-48.32-27.43-14.28-10.81-27.45-20.65-44.54-26.93-15.07-5.54-34.41-10-50.55-7.35-42.29,6.85-39.48,57.7-9.3,78.17C656.9,610.62,677.59,616.91,697.82,616Z"/><path class="cls-3" d="M689.26,531.25c17.09,6.28,30.26,16.12,44.54,26.93,15.15,11.47,32.9,16.94,48.32,27.43,23.75,16.15,19.29,50-2.68,60.31,30.72-3,40.52-44.7,13.32-63.2-15.42-10.48-33.17-16-48.32-27.43-14.28-10.81-27.45-20.65-44.54-26.93-15.07-5.54-34.41-10-50.55-7.35a46.49,46.49,0,0,0-10.24,2.83C655.17,521.37,674.31,525.76,689.26,531.25Z"/><path class="cls-2" d="M1715,361.37c10.88-7.34,19.08-12.86,32.77-13.11,14.45-.26,28.46,6.78,42.73,1.22,37-14.43,24.49-64.47-12-66.17-18.62-.87-36.62,3.75-55.53,1.91-17.83-1.74-34.19-3.24-52,.35-15.74,3.16-34.54,9.52-46.92,20.18-32.45,28-3.46,69.83,33,71.48C1677.31,378.17,1698.24,372.7,1715,361.37Z"/><path class="cls-3" d="M1663.37,293.6c17.85-3.59,34.22-2.09,52-.35,18.91,1.85,36.9-2.77,55.53-1.91,28.69,1.34,42.58,32.5,29.27,52.8,24.59-18.66,11.14-59.29-21.71-60.83-18.62-.87-36.62,3.75-55.53,1.91-17.83-1.74-34.19-3.24-52,.35-15.74,3.16-34.54,9.52-46.92,20.18a46.49,46.49,0,0,0-7.24,7.77C1629.15,303,1647.76,296.74,1663.37,293.6Z"/><g class="cls-4"><path class="cls-5" d="M477.39,429.17c-162-4-182.2-22.92-215.54-26.53-7.26-.79-27.81,140.84-7.17,150.91,32.5,15.86,90.57,35.8,185.68,38.78,228.75,7.17,204.73-92,230.7-98.39C652.44,489.46,489.59,429.47,477.39,429.17Z"/></g><path id="_Path_" data-name="&lt;Path&gt;" class="cls-6" d="M260.4,387.84,665.8,330.12l5.23,157a10.73,10.73,0,0,1-9.78,11.55L280.82,519.88a10.73,10.73,0,0,1-11.22-10.15Z"/><path class="cls-7" d="M649,229.59,266.52,255a18.1,18.1,0,0,0-16.81,19.2l.9,13.56,13.21,134.95.9,13.56a18.1,18.1,0,0,0,19.2,16.81l365.42-20.21a18.1,18.1,0,0,0,16.81-19.2l-.9-13.56,3.86-140.17-.9-13.56A18.1,18.1,0,0,0,649,229.59Z"/><path id="_Path_2" data-name="&lt;Path&gt;" class="cls-8" d="M289.46,438.24l352.43-19.34A10.81,10.81,0,0,0,652,407.39l3.25-149.3A15.15,15.15,0,0,0,639.13,244L278.21,268a15.15,15.15,0,0,0-14.07,16.07L278,428.17A10.81,10.81,0,0,0,289.46,438.24Z"/><path class="cls-9" d="M639.13,244,278.21,268a15.15,15.15,0,0,0-14.07,16.07L269.72,350c-.55-8.29,5-9.59,13.27-10.14l360.92-24c8.29-.55,9.12,8.74,9.67,17l1.63-74.76A15.15,15.15,0,0,0,639.13,244Z"/><path class="cls-7" d="M640,8.25,247.5,37.65a18.1,18.1,0,0,0-16.81,19.2l.9,13.56L245.68,213.6l.9,13.56A18.1,18.1,0,0,0,265.78,244l382.49-25.43a18.1,18.1,0,0,0,16.81-19.2l-.9-13.56-4-147.17-.9-13.56A18.1,18.1,0,0,0,640,8.25Z"/><path id="_Path_3" data-name="&lt;Path&gt;" class="cls-8" d="M271.32,229.12l369.49-24.56a10.81,10.81,0,0,0,10.07-11.5L646.23,36.75a15.15,15.15,0,0,0-16.07-14.07l-371,28a15.15,15.15,0,0,0-14.07,16.07l14.69,152.32A10.81,10.81,0,0,0,271.32,229.12Z"/><rect id="_Path_4" data-name="&lt;Path&gt;" class="cls-10" x="285.46" y="23.27" width="33.16" height="10.4" transform="translate(-1.22 20.1) rotate(-3.8)"/><rect id="_Path_5" data-name="&lt;Path&gt;" class="cls-11" x="288.76" y="24.71" width="27.17" height="2.3" transform="translate(-1.05 20.11) rotate(-3.8)"/><rect id="_Path_6" data-name="&lt;Path&gt;" class="cls-10" x="569.28" y="1.09" width="33.16" height="10.4" transform="translate(0.87 38.88) rotate(-3.8)"/><rect id="_Path_7" data-name="&lt;Path&gt;" class="cls-11" x="572.57" y="2.53" width="27.17" height="2.3" transform="translate(1.05 38.89) rotate(-3.8)"/><rect class="cls-12" x="308.62" y="464.04" width="21.74" height="44.32" rx="10.87" ry="10.87" transform="translate(-31.55 22.26) rotate(-3.8)"/><rect class="cls-12" x="367.55" y="460.12" width="21.74" height="44.32" rx="10.87" ry="10.87" transform="translate(-31.16 26.16) rotate(-3.8)"/><rect class="cls-12" x="426.48" y="456.2" width="21.74" height="44.32" rx="10.87" ry="10.87" transform="translate(-30.77 30.06) rotate(-3.8)"/><rect class="cls-12" x="485.42" y="452.29" width="21.74" height="44.32" rx="10.87" ry="10.87" transform="translate(-30.38 33.97) rotate(-3.8)"/><rect class="cls-12" x="544.35" y="448.37" width="21.74" height="44.32" rx="10.87" ry="10.87" transform="translate(-29.99 37.87) rotate(-3.8)"/><rect class="cls-12" x="603.28" y="444.45" width="21.74" height="44.32" rx="10.87" ry="10.87" transform="translate(-29.6 41.77) rotate(-3.8)"/><path class="cls-12" d="M366.12,231.51c-13.45.66-24.2,1.35-24,11.33.32,14.46,11.29,9.6,24.74,8.94s25.47,1.87,24-11.33C389.47,228.2,379.57,230.85,366.12,231.51Z"/><path class="cls-13" d="M366,240.15a3.18,3.18,0,0,0-2.49,3.71,3.13,3.13,0,0,0,3.38,2.87c1.62-.23,2.71-1.16,2.46-3S367.63,239.92,366,240.15Z"/><path class="cls-13" d="M381.76,239.1a3.18,3.18,0,0,0-2.49,3.71,3.13,3.13,0,0,0,3.38,2.87c1.62-.23,2.71-1.16,2.46-3S383.38,238.87,381.76,239.1Z"/><path class="cls-13" d="M351.13,240.57a3.18,3.18,0,0,0-2.49,3.71,3.13,3.13,0,0,0,3.38,2.87,3.28,3.28,0,0,0,2.61-3.72A3.22,3.22,0,0,0,351.13,240.57Z"/><path class="cls-12" d="M570.91,217.9c-13.45.66-24.2,1.35-24,11.33.32,14.46,11.29,9.6,24.74,8.94s25.47,1.87,24-11.33C594.27,214.59,584.37,217.24,570.91,217.9Z"/><path class="cls-13" d="M570.81,226.54a3.18,3.18,0,0,0-2.49,3.71,3.13,3.13,0,0,0,3.38,2.87c1.62-.23,2.71-1.16,2.46-3S572.43,226.3,570.81,226.54Z"/><path class="cls-13" d="M586.56,225.49a3.18,3.18,0,0,0-2.49,3.71,3.13,3.13,0,0,0,3.38,2.87c1.62-.23,2.71-1.16,2.46-3S588.18,225.26,586.56,225.49Z"/><path class="cls-13" d="M555.92,227a3.18,3.18,0,0,0-2.49,3.71,3.13,3.13,0,0,0,3.38,2.87,3.28,3.28,0,0,0,2.61-3.72A3.22,3.22,0,0,0,555.92,227Z"/><path class="cls-14" d="M395,139.5l-2.59.16-.36,1.67-1.64.1,1.83-7.71,2.27-.14,2.77,7.42-1.71.11Zm-.49-1.4L393.4,135l-.7,3.23Z"/><path class="cls-14" d="M398.79,133.32l1.56-.1.38,6.14,3.26-.2.09,1.43-4.82.3Z"/><path class="cls-14" d="M405.76,132.89l1.56-.1.38,6.14,3.26-.2.09,1.43-4.82.3Z"/><path class="cls-14" d="M420.25,137.94l-2.59.16-.36,1.67-1.64.1,1.83-7.71,2.27-.14,2.77,7.42-1.71.11Zm-.49-1.4-1.09-3.12-.7,3.23Z"/><path class="cls-14" d="M424.05,131.75l4-.25a1.33,1.33,0,0,1,1.61,1.42l.06,1a1.21,1.21,0,0,1-.61,1.21,1.2,1.2,0,0,1,.84,1.12l.07,1.19a1.33,1.33,0,0,1-1.42,1.61l-4,.25Zm3.88,2.8c.16,0,.21-.07.2-.23l-.07-1.19c0-.16-.07-.21-.23-.2l-2.14.13.1,1.62Zm.28,3.13c.16,0,.21-.07.2-.23l-.08-1.36c0-.16-.07-.21-.23-.2l-2.23.14.11,1.79Z"/><path class="cls-14" d="M432.17,137.33l-.28-4.54a1.33,1.33,0,0,1,1.42-1.61l2.78-.17a1.33,1.33,0,0,1,1.61,1.42L438,137a1.33,1.33,0,0,1-1.42,1.61l-2.78.17A1.33,1.33,0,0,1,432.17,137.33Zm4-.16c.16,0,.21-.07.2-.23l-.27-4.28c0-.16-.07-.21-.23-.2l-2.26.14c-.16,0-.21.07-.2.23l.27,4.28c0,.16.07.21.23.2Z"/><path class="cls-14" d="M444.33,136.44l-2.59.16-.36,1.67-1.64.1,1.83-7.71,2.27-.14L446.6,138l-1.71.11Zm-.49-1.4-1.09-3.12-.7,3.23Z"/><path class="cls-14" d="M454.34,137.47l-1.68.1L451.24,135l-1.25.08.17,2.67-1.56.1-.47-7.57,4-.25a1.33,1.33,0,0,1,1.61,1.42l.11,1.83c.05.85-.25,1.36-1,1.53Zm-2.26-3.93c.16,0,.21-.07.2-.23l-.1-1.68c0-.16-.07-.21-.23-.2l-2.17.13.13,2.11Z"/><path class="cls-14" d="M456.13,129.77l4.14-.26a1.33,1.33,0,0,1,1.61,1.42l.28,4.54a1.33,1.33,0,0,1-1.42,1.61l-4.14.26Zm4.26,5.9c.16,0,.21-.07.2-.23l-.27-4.28c0-.16-.07-.21-.23-.2l-2.32.14.29,4.71Z"/><path class="cls-14" d="M472,134.73l-2.59.16-.36,1.67-1.64.1,1.83-7.71,2.27-.14,2.77,7.42-1.71.11Zm-.49-1.4-1.09-3.12-.7,3.23Z"/><path class="cls-14" d="M475.84,128.54l4-.25a1.33,1.33,0,0,1,1.61,1.42l.12,2a1.33,1.33,0,0,1-1.42,1.61l-2.44.15.16,2.53-1.56.1Zm4,3.38c.16,0,.21-.07.2-.23l-.11-1.75c0-.16-.07-.21-.23-.2l-2.18.14.14,2.18Z"/><path class="cls-14" d="M483.57,128.06l4-.25a1.33,1.33,0,0,1,1.61,1.42l.12,2a1.33,1.33,0,0,1-1.42,1.61l-2.44.15.16,2.53-1.56.1Zm4,3.38c.16,0,.21-.07.2-.23l-.11-1.75c0-.16-.07-.21-.23-.2l-2.18.14.14,2.18Z"/><path class="cls-14" d="M491.46,133.65l-.06-1,1.51-.09.05.84c0,.16.07.21.23.2l2-.12c.16,0,.21-.07.2-.23l-.06-.91c0-.24-.11-.3-.39-.34l-2-.31c-1-.15-1.59-.49-1.65-1.46l-.07-1.17a1.33,1.33,0,0,1,1.42-1.61l2.33-.14a1.33,1.33,0,0,1,1.61,1.42l.05.86-1.51.09,0-.76c0-.16-.07-.21-.23-.2l-1.86.12c-.16,0-.21.07-.2.23l.05.82c0,.24.11.3.39.34l2,.31c1,.15,1.59.49,1.65,1.46l.08,1.25a1.33,1.33,0,0,1-1.42,1.61l-2.49.15A1.33,1.33,0,0,1,491.46,133.65Z"/><path class="cls-14" d="M507.94,140.27l-127.67,7.92L379,128.42l127.67-7.92Zm-126.1,6.13,124.32-7.71-1-16.41L380.82,130Z"/><path class="cls-14" d="M433.65,106.4a7.25,7.25,0,0,0,2.1.46c.4,0,.79.06,1.14.07s.65,0,.87,0,.54-.06.88-.11a13.62,13.62,0,0,0,2.18-.57,6.14,6.14,0,0,0,.94-.42c-.61-6.53-2.64-13.88-5.3-17.2h0a20.81,20.81,0,0,0-2.14,6.64v.06q-.1.55-.18,1.11v.05q-.08.57-.15,1.15h0q-.07.61-.13,1.22h0q-.06.62-.1,1.24c0,.16,0,.33,0,.49s0,.51,0,.77c0,.06,0,.12,0,.17,0,.36,0,.73,0,1.09,0,.17,0,.34,0,.51s0,.5,0,.76C433.59,104.74,433.61,105.58,433.65,106.4Z"/><path class="cls-14" d="M441.32,109.39h3.38a18.78,18.78,0,0,0-3.86-1.5c-.37.13-.78.25-1.17.34l-.48.11h-.07l-.38.07-.12,0-.3,0h-.11l-.34,0H437l-.38,0h-.09l-.52,0a12,12,0,0,1-1.25-.18,16.21,16.21,0,0,0-3.52,2l3.35-.47-3.2,3.75,4.07-2.41-.94,3.21,2.23-1.78,2.15,10.26.68-10.46,2.46,1.45-1.39-3,4.37,1.81Z"/><path class="cls-14" d="M457.54,103v0a5.71,5.71,0,0,0-.94-2.88,5.68,5.68,0,0,0-.52,3s0,0,0,0v.06a23,23,0,0,0-4.2-2.26c-2.48-13.32-8.82-23.95-16.56-28.32h0c-7,5.43-11.8,16.84-12.37,30.38a22.65,22.65,0,0,0-3.87,2.86v-.12a5.68,5.68,0,0,0-.94-2.88,5.71,5.71,0,0,0-.52,3s0,0,0,0l.47,6.55a.74.74,0,1,0,1.48-.11v-.16A31.64,31.64,0,0,1,423,110h0a34.38,34.38,0,0,1,8.8-3.23c-.49-8.63,1.26-17.93,4.41-21.17h0c2.51,1.94,4.76,6.92,6.14,12.7h0l.1.41a53,53,0,0,1,1,5.56v.07q0,.34.08.68l0,.25,0,.5v.15h0l1.19.11h0l1.16.15h0q1.14.16,2.24.4l.18,0,1,.23.09,0,1,.28.22.06.79.24.28.09.9.31a31.62,31.62,0,0,1,3.79,1.65v.18a.74.74,0,1,0,1.48-.11Z"/><polygon class="cls-14" points="439.14 108 439.13 108 439.12 108 439.14 108"/><path class="cls-14" d="M436.53,108.18h0Z"/><g class="cls-4"><path class="cls-5" d="M563,356.72c-60.12-1.57-67.63-9-80-10.42-2.7-.31-13.29,47.25-5.63,51.2,12.06,6.23,52.58,18,87.88,19.15,84.9,2.82,60-32,69.63-34.49C627.93,380.41,567.49,356.84,563,356.72Z"/></g><g class="cls-4"><path class="cls-5" d="M385.87,356.72c-60.12-1.57-67.63-9-80-10.42-2.7-.31-13.29,47.25-5.63,51.2,12.06,6.23,52.58,18,87.88,19.15,84.9,2.82,60-32,69.63-34.49C450.84,380.41,390.4,356.84,385.87,356.72Z"/></g><path class="cls-15" d="M482.3,322.27l-9,5.08s-6.22,11-4.16,13.49,7.89,8.32,7.89,8.32Z"/><path class="cls-16" d="M629.76,305.88l.24.32a60.37,60.37,0,0,0-15.58,19.15c-29.86-7.07-59.91-12.26-89.94-17.26q1.69-4.06,3.57-8.05"/><path class="cls-16" d="M500.07,298.44l13.67.78q-2.05,3.13-4,6.42l-14.59-2.43C496.66,301.6,498.29,300,500.07,298.44Z"/><path class="cls-17" d="M528.05,300q-1.88,4-3.57,8.05l-14.76-2.46q2-3.28,4-6.42Z"/><path class="cls-16" d="M524.48,308.1c30,5,60.07,10.19,89.94,17.26-12.19,23.52-8.73,53.95,3.06,79.33-.63.63-1.27,1.26-1.93,1.88l-98.77-17.38C509.06,362,513.66,334.13,524.48,308.1Z"/><path class="cls-16" d="M509.72,305.64c-14.79,24.85-24.51,55.6-11.26,80.32l-13.1-2.31s-24.24-44.61,9.77-80.45Z"/><path class="cls-17" d="M509.72,305.64l14.76,2.46c-10.82,26-15.43,53.95-7.71,81.09L498.46,386C485.21,361.24,494.93,330.49,509.72,305.64Z"/><path class="cls-17" d="M630,306.2c3.18,4.28,35.71,50.74-12.53,98.48C602.12,371.61,600.86,330,630,306.2Z"/><path class="cls-15" d="M650.9,349.68a1.34,1.34,0,0,1,.06.18c.55,2.51-.08,18-5,22.14C643.67,363.9,645,354.61,650.9,349.68Z"/><path class="cls-15" d="M636.75,337.3s13.05,9.57,14.15,12.37C645,354.61,643.67,363.9,646,372c-.06.05-.11.12-.18.17l-14.88,4.57S616.33,354.76,636.75,337.3Z"/><polygon class="cls-15" points="580.4 357.62 589.84 335.81 563.73 342.96 569.54 327.94 529.29 355.68 556.38 349.93 553.22 360.12 580.4 357.62"/><path class="cls-18" d="M359,403.56l-13.33,20.81s-1.94,1-2.93-.49,10.39-14.33,9.67-15.08-1-.47-1.18-.7,1.81-2.29,1.81-2.29l5.88-3.1Z"/><circle class="cls-16" cx="239.84" cy="299.72" r="9.31" transform="translate(-124.45 178.69) rotate(-32.95)"/><path class="cls-16" d="M401.61,362.49c4,3.62-3.2,9.86-3.2,9.86l2.23,1.08,2.73,1.33s4.48-6.71,5.09-11.15a5.65,5.65,0,0,0,0-1.68C407.78,357.79,397.63,358.87,401.61,362.49Z"/><path class="cls-18" d="M242.54,299.61a1.65,1.65,0,0,0-.19.43c-1.13,4.36,41,32.1,41,32.1a16.12,16.12,0,0,0,6.07-5.45,8.48,8.48,0,0,0,.57-8.15S246.23,293.39,242.54,299.61Z"/><path class="cls-17" d="M350,405.22l1.62,1.08s48.81-16.91,44.23-64.73l-1.1-.72C368.62,351.82,345.11,376.42,350,405.22Z"/><path class="cls-16" d="M274.51,340.41c27,13.46,52.89,26,77.44,42,4.68-13.61,15.31-25.31,28.08-33.72-29.16-17.8-59.77-32.28-90.59-46.59C277.29,314.73,274.5,329.47,274.51,340.41Z"/><path class="cls-16" d="M332.39,370.48c-3.36-1.93-6.74-3.81-10.15-5.67q-3.86-2.11-7.76-4.16c-2-1.08-4.09-2.14-6.14-3.2-11.07-5.74-22.33-11.32-33.83-17a58.71,58.71,0,0,0,2.09,16l30.52,20.28,4.95,3.29,6,4,12.81,8.51L350,405.22a45.59,45.59,0,0,1,1.9-22.78C345.52,378.24,339,374.28,332.39,370.48Z"/><path class="cls-16" d="M380,348.72a90.78,90.78,0,0,1,14.77-7.88l-82.56-53.92c-9.91,4.26-17.31,9.52-22.8,15.21C320.26,316.45,350.87,330.92,380,348.72Z"/><path class="cls-18" d="M384.73,393.35c-7,1.21-13.25-6.62-21.14-9.79a13.89,13.89,0,0,0,.38,2.35s18.84,14.56,25.9,9.33a7.34,7.34,0,0,1,4.38-1.46q-.21-2.37-.35-4.74l-.29-.14C392.08,388.58,388.08,392.48,384.73,393.35Z"/><path class="cls-18" d="M407,400.48S456.3,394,457.24,380.3a14.85,14.85,0,0,0-.37-4.26c-18.4,14.89-38.62,25.5-63,13q.15,2.37.35,4.74C400.46,393.71,407,400.48,407,400.48Z"/><path class="cls-19" d="M363.59,383.56c7.89,3.17,14.13,11,21.14,9.79,3.35-.87,7.36-4.77,8.87-4.45,24.48,12.73,44.79,2.08,63.27-12.87-2.81-12.52-19.83-25.07-20.46-18.8-.7,7,9.44-1.55-8.33,9.32s-27.6,6.79-27.6,6.79l-22.82-10.86C364,368.85,363.2,379,363.59,383.56Z"/><path class="cls-16" d="M409.36,376.08a16.5,16.5,0,0,1,4.77,11.14s0,.09,0,.13c-.1,3.54,3.18,4.9,7.15,3.64s-1-5.67,1.16-7.5a70.92,70.92,0,0,1,10.41-6c5-2.43,10.28-4.3,11.84-2.74,3.05,3,5.69,2.4,6.92,1.61s-5.17-13.28-12.13-15.76a7,7,0,0,0-2.11-.42s-4.25,1.37-9.52,3.34c-6.76,2.53-15.22,6-18.58,9C409.26,372.44,406.35,373.24,409.36,376.08Z"/><path class="cls-16" d="M369.75,376l13.82,7.52A9.77,9.77,0,0,0,385,382c.49-.66.8-1.4.3-1.86-1.1-1-13.05-7.86-13.05-7.86a9.18,9.18,0,0,0-1.71,1.5A2.52,2.52,0,0,0,369.75,376Z"/><path class="cls-18" d="M273.2,296.15c-.21.36-.42.71-.62,1.08q-.61,1.1-1.2,2.27A140.67,140.67,0,0,0,262,324.82c-1,3.68-1.79,7.12-2.33,10-.77,4.13-1,7.22-.67,8.46a5.3,5.3,0,0,0,3.89,4c4.27,1,9.29-4.14,10.73-5.72a2.74,2.74,0,0,0-4.06-3.68c-1.75,1.93-4.15,3.74-5.24,4l0-.13a16.47,16.47,0,0,1,.35-4.06c.39-2.41,1.09-5.71,2.11-9.63,1-3.71,2.23-8,3.81-12.52,1.45-4.17,2.86-7.71,4.2-10.69.37-.83.74-1.59,1.1-2.33l.58-1.16a34.46,34.46,0,0,1,5.24-8,6.11,6.11,0,0,1,2.37-1.71c1.79-.54,3.57,3.15,4.26,4.77a2.74,2.74,0,1,0,5-2.14,23.17,23.17,0,0,0-1.85-3.56c-3.41-5.26-7.24-5-9.42-4.19a8.69,8.69,0,0,0-2,1.11C277.71,289.39,275.39,292.38,273.2,296.15Z"/><path class="cls-15" d="M335.9,349a8,8,0,0,0,.93,6.61,8.17,8.17,0,0,0,11.33,2.27,8.42,8.42,0,0,0,2-1.88,8.08,8.08,0,0,0,.5-9.38,8.17,8.17,0,0,0-11.33-2.27A8.35,8.35,0,0,0,335.9,349Z"/><path class="cls-15" d="M313.53,333.48a8,8,0,0,0,.93,6.61,8.17,8.17,0,0,0,11.32,2.27,8.43,8.43,0,0,0,2-1.88,8.08,8.08,0,0,0,.5-9.38A8.17,8.17,0,0,0,317,328.82,8.35,8.35,0,0,0,313.53,333.48Z"/><path class="cls-15" d="M290.44,320.37a8,8,0,0,0,.93,6.61,8.17,8.17,0,0,0,11.33,2.27,8.42,8.42,0,0,0,2-1.88,8.08,8.08,0,0,0,.5-9.39,8.17,8.17,0,0,0-11.33-2.27A8.35,8.35,0,0,0,290.44,320.37Z"/><path class="cls-19" d="M345.29,395.11l-15.67,23.36s3.76,3,4.81,1,6.35-12.85,8.41-13.1a22.39,22.39,0,0,1,5.07.25,4.53,4.53,0,0,0,.44-2.53c-.26-1.12-2.59-5.49-1.47-7.74Z"/><text class="cls-20" transform="translate(347.41 912.04)"><tspan class="cls-21">J</tspan><tspan class="cls-22" x="15.12" y="0">AV</tspan><tspan class="cls-23" x="46.06" y="0">A</tspan><tspan x="63.77" y="0">SCRI</tspan><tspan class="cls-24" x="123.2" y="0">P</tspan><tspan class="cls-25" x="139.89" y="0">T</tspan><tspan class="cls-26" x="154.74" y="0"> </tspan><tspan x="160.73" y="0">AND NODE</tspan></text><circle class="cls-16" cx="494.21" cy="735.52" r="119.41"/><circle class="cls-15" cx="494.21" cy="735.52" r="100.03"/><text class="cls-20" transform="translate(451.83 1239.6)">M<tspan class="cls-27" x="22.84" y="0">Y</tspan><tspan x="38.99" y="0">SQL, PO</tspan><tspan class="cls-28" x="136.38" y="0">S</tspan><tspan class="cls-23" x="153.01" y="0">T</tspan><tspan x="168.18" y="0">GR</tspan><tspan class="cls-24" x="203.07" y="0">ES</tspan><tspan x="235.68" y="0">, SQ</tspan><tspan class="cls-29" x="283.33" y="0">L</tspan><tspan x="297.73" y="0" xml:space="preserve"> SE</tspan><tspan class="cls-27" x="337.25" y="0">R</tspan><tspan x="354.43" y="0">VER</tspan><tspan x="68.28" y="32.4">MONGOD</tspan><tspan class="cls-28" x="181.33" y="32.4">B</tspan><tspan x="198.42" y="32.4">, FIRE</tspan><tspan class="cls-24" x="269.16" y="32.4">B</tspan><tspan class="cls-23" x="286.31" y="32.4">A</tspan><tspan class="cls-30" x="304.02" y="32.4">SE</tspan></text><circle class="cls-16" cx="654.5" cy="1079.05" r="119.41"/><circle class="cls-15" cx="654.5" cy="1079.05" r="100.03"/><text class="cls-20" transform="translate(1060.53 1239.6)">HERO<tspan class="cls-27" x="70.28" y="0">K</tspan><tspan class="cls-24" x="87.7" y="0">U</tspan><tspan x="105.52" y="0">,</tspan><tspan class="cls-26" x="112.27" y="0"> </tspan><tspan class="cls-31" x="118.26" y="0">AM</tspan><tspan class="cls-32" x="159.14" y="0">A</tspan><tspan class="cls-28" x="177.01" y="0">Z</tspan><tspan class="cls-30" x="192.89" y="0">ON</tspan><tspan class="cls-33" x="229.99" y="0"> </tspan><tspan class="cls-34" x="235.98" y="0">A</tspan><tspan class="cls-28" x="252.13" y="0">W</tspan><tspan class="cls-24" x="276.91" y="0">S</tspan><tspan x="293.6" y="0">,</tspan><tspan x="36.53" y="32.4">CU</tspan><tspan class="cls-28" x="71.39" y="32.4">S</tspan><tspan class="cls-23" x="88.02" y="32.4">T</tspan><tspan class="cls-30" x="103.19" y="32.4">OM HO</tspan><tspan class="cls-28" x="186.95" y="32.4">S</tspan><tspan x="203.58" y="32.4">TING</tspan></text><circle class="cls-16" cx="1210.7" cy="1079.05" r="119.41"/><circle class="cls-15" cx="1210.7" cy="1079.05" r="100.03"/><text class="cls-20" transform="translate(839.8 912.04)">RU<tspan class="cls-35" x="35.59" y="0">B</tspan><tspan class="cls-33" x="52.51" y="0">Y</tspan><tspan class="cls-30" x="68.55" y="0" xml:space="preserve"> ON RAI</tspan><tspan class="cls-28" x="162.35" y="0">L</tspan><tspan class="cls-30" x="177.06" y="0">S</tspan></text><circle class="cls-16" cx="936.78" cy="735.52" r="119.41"/><circle class="cls-15" cx="936.78" cy="735.52" r="100.03"/><text class="cls-20" transform="translate(1322.94 912.04)"><tspan class="cls-21">W</tspan><tspan x="24.73" y="0">ORDPR</tspan><tspan class="cls-24" x="112.51" y="0">E</tspan><tspan class="cls-30" x="128.44" y="0">SS</tspan></text><circle class="cls-16" cx="1404.06" cy="735.52" r="119.41"/><circle class="cls-15" cx="1404.06" cy="735.52" r="100.03"/></g></g></svg>